<svg width="56" height="54" viewBox="0 0 56 54" fill="none" xmlns="http://www.w3.org/2000/svg">
<path d="M30.3334 45V33.75H25.6667V45C25.6667 46.1935 25.175 47.3381 24.2999 48.182C23.4247 49.0259 22.2377 49.5 21 49.5H14C12.7623 49.5 11.5754 49.0259 10.7002 48.182C9.82502 47.3381 9.33336 46.1935 9.33336 45V27.9225L8.63336 28.5975C8.42242 28.8315 8.1636 29.0209 7.87316 29.1539C7.58271 29.2868 7.2669 29.3605 6.94554 29.3702C6.62418 29.3799 6.3042 29.3255 6.00568 29.2103C5.70716 29.0952 5.43655 28.9218 5.21082 28.701C4.98509 28.4802 4.80911 28.2168 4.69393 27.9274C4.57875 27.6379 4.52685 27.3286 4.54148 27.0189C4.55612 26.7092 4.63697 26.4057 4.77898 26.1276C4.92098 25.8494 5.12107 25.6026 5.36669 25.4025L26.3667 5.15249C26.8029 4.74023 27.3893 4.50931 28 4.50931C28.6108 4.50931 29.1972 4.74023 29.6334 5.15249L50.6334 25.4025C51.019 25.8303 51.223 26.3826 51.2046 26.9492C51.1862 27.5157 50.9467 28.0547 50.534 28.4583C50.1213 28.862 49.5658 29.1005 48.9786 29.1263C48.3914 29.1521 47.8157 28.9633 47.3667 28.5975L46.6667 27.9225V45C46.6667 46.1935 46.175 47.3381 45.2999 48.182C44.4247 49.0259 43.2377 49.5 42 49.5H35C33.7624 49.5 32.5754 49.0259 31.7002 48.182C30.825 47.3381 30.3334 46.1935 30.3334 45ZM42 45V23.4225L28 9.92249L14 23.4225V45H21V33.75C21 31.275 23.1 29.25 25.6667 29.25H30.3334C31.571 29.25 32.758 29.7241 33.6332 30.568C34.5084 31.4119 35 32.5565 35 33.75V45H42Z" fill="black"/>
</svg>
